HIERARCHY
ROOT hip
{
  OFFSET 0 0 0
  CHANNELS 6 Xposition Yposition Zposition Zrotation Yrotation Xrotation
  JOINT abdomen
  {
    OFFSET 0 20.6881 -0.73152
    CHANNELS 3 Zrotation Xrotation Yrotation
    JOINT chest
    {
      OFFSET 0 11.7043 -0.48768
      CHANNELS 3 Zrotation Xrotation Yrotation
      JOINT neck
      {
        OFFSET 0 22.1894 -2.19456
        CHANNELS 3 Zrotation Xrotation Yrotation
        JOINT head
        {
          OFFSET -0.24384 7.07133 1.2192
          CHANNELS 3 Zrotation Xrotation Yrotation
          JOINT leftEye
          {
            OFFSET 4.14528 8.04674 8.04672
            CHANNELS 3 Zrotation Xrotation Yrotation
            End Site
            {
              OFFSET 1 0 0
            }
          }
          JOINT rightEye
          {
            OFFSET -3.6576 8.04674 8.04672
            CHANNELS 3 Zrotation Xrotation Yrotation
            End Site
            {
              OFFSET 1 0 0
            }
          }
        }
      }
      JOINT rCollar
      {
        OFFSET -2.68224 19.2634 -4.8768
        CHANNELS 3 Zrotation Xrotation Yrotation
        JOINT rShldr
        {
          OFFSET -8.77824 -1.95073 1.46304
          CHANNELS 3 Zrotation Xrotation Yrotation
          JOINT rForeArm
          {
            OFFSET -28.1742 -1.7115 0.48768
            CHANNELS 3 Zrotation Xrotation Yrotation
            JOINT rHand
            {
              OFFSET -22.5879 0.773209 7.07136
              CHANNELS 3 Zrotation Xrotation Yrotation
              JOINT rThumb1
              {
                OFFSET -1.2192 -0.487915 3.41376
                CHANNELS 3 Zrotation Xrotation Yrotation
                JOINT rThumb2
                {
                  OFFSET -3.37035 -0.52449 3.41376
                  CHANNELS 3 Zrotation Xrotation Yrotation
                  End Site
                  {
                    OFFSET -1.78271 -1.18214 1.43049
                  }
                }
              }
              JOINT rIndex1
              {
                OFFSET -7.75947 0.938293 5.60832
                CHANNELS 3 Zrotation Xrotation Yrotation
                JOINT rIndex2
                {
                  OFFSET -2.54057 -0.884171 1.56538
                  CHANNELS 3 Zrotation Xrotation Yrotation
                  End Site
                  {
                    OFFSET -1.62519 -0.234802 1.16502
                  }
                }
              }
              JOINT rMid1
              {
                OFFSET -8.24714 1.18213 3.41376
                CHANNELS 3 Zrotation Xrotation Yrotation
                JOINT rMid2
                {
                  OFFSET -3.10165 -0.590103 1.0647
                  CHANNELS 3 Zrotation Xrotation Yrotation
                  End Site
                  {
                    OFFSET -2.48547 -0.328903 0.83742
                  }
                }
              }
              JOINT rRing1
              {
                OFFSET -8.82822 0.546677 1.51678
                CHANNELS 3 Zrotation Xrotation Yrotation
                JOINT rRing2
                {
                  OFFSET -2.60934 -0.819778 -0.0198488
                  CHANNELS 3 Zrotation Xrotation Yrotation
                  End Site
                  {
                    OFFSET -2.33842 -0.294052 0.168128
                  }
                }
              }
              JOINT rPinky1
              {
                OFFSET -8.27202 -0.0477905 -0.4584
                CHANNELS 3 Zrotation Xrotation Yrotation
                JOINT rPinky2
                {
                  OFFSET -1.82734 -0.647385 -0.700984
                  CHANNELS 3 Zrotation Xrotation Yrotation
                  End Site
                  {
                    OFFSET -1.69225 -0.51767 -0.607171
                  }
                }
              }
            }
          }
        }
      }
      JOINT lCollar
      {
        OFFSET 2.68224 19.2634 -4.8768
        CHANNELS 3 Zrotation Xrotation Yrotation
        JOINT lShldr
        {
          OFFSET 8.77824 -1.95073 1.46304
          CHANNELS 3 Zrotation Xrotation Yrotation
          JOINT lForeArm
          {
            OFFSET 28.1742 -1.7115 0.48768
            CHANNELS 3 Zrotation Xrotation Yrotation
            JOINT lHand
            {
              OFFSET 22.5879 0.773209 7.07136
              CHANNELS 3 Zrotation Xrotation Yrotation
              JOINT lThumb1
              {
                OFFSET 1.2192 -0.487915 3.41376
                CHANNELS 3 Zrotation Xrotation Yrotation
                JOINT lThumb2
                {
                  OFFSET 3.37035 -0.52449 3.41376
                  CHANNELS 3 Zrotation Xrotation Yrotation
                  End Site
                  {
                    OFFSET 1.78271 -1.18214 1.43049
                  }
                }
              }
              JOINT lIndex1
              {
                OFFSET 7.75947 0.938293 5.60832
                CHANNELS 3 Zrotation Xrotation Yrotation
                JOINT lIndex2
                {
                  OFFSET 2.54057 -0.884171 1.56538
                  CHANNELS 3 Zrotation Xrotation Yrotation
                  End Site
                  {
                    OFFSET 1.62519 -0.234802 1.16502
                  }
                }
              }
              JOINT lMid1
              {
                OFFSET 8.24714 1.18213 3.41376
                CHANNELS 3 Zrotation Xrotation Yrotation
                JOINT lMid2
                {
                  OFFSET 3.10165 -0.590103 1.0647
                  CHANNELS 3 Zrotation Xrotation Yrotation
                  End Site
                  {
                    OFFSET 2.48547 -0.328903 0.83742
                  }
                }
              }
              JOINT lRing1
              {
                OFFSET 8.82822 0.546677 1.51678
                CHANNELS 3 Zrotation Xrotation Yrotation
                JOINT lRing2
                {
                  OFFSET 2.60934 -0.819778 -0.0198488
                  CHANNELS 3 Zrotation Xrotation Yrotation
                  End Site
                  {
                    OFFSET 2.33842 -0.294052 0.168128
                  }
                }
              }
              JOINT lPinky1
              {
                OFFSET 8.27202 -0.0477905 -0.4584
                CHANNELS 3 Zrotation Xrotation Yrotation
                JOINT lPinky2
                {
                  OFFSET 1.82734 -0.647385 -0.700984
                  CHANNELS 3 Zrotation Xrotation Yrotation
                  End Site
                  {
                    OFFSET 1.69225 -0.51767 -0.607171
                  }
                }
              }
            }
          }
        }
      }
    }
  }
  JOINT rButtock
  {
    OFFSET -8.77824 4.35084 1.2192
    CHANNELS 3 Zrotation Xrotation Yrotation
    JOINT rThigh
    {
      OFFSET 0 -1.70687 -2.19456
      CHANNELS 3 Zrotation Xrotation Yrotation
      JOINT rShin
      {
        OFFSET 0 -36.8199 0.73152
        CHANNELS 3 Zrotation Xrotation Yrotation
        JOINT rFoot
        {
          OFFSET 0.73152 -45.1104 -5.12064
          CHANNELS 3 Zrotation Xrotation Yrotation
          End Site
          {
            OFFSET -1.1221 -3.69964 12.103
          }
        }
      }
    }
  }
  JOINT lButtock
  {
    OFFSET 8.77824 4.35084 1.2192
    CHANNELS 3 Zrotation Xrotation Yrotation
    JOINT lThigh
    {
      OFFSET 0 -1.70687 -2.19456
      CHANNELS 3 Zrotation Xrotation Yrotation
      JOINT lShin
      {
        OFFSET 0 -36.8199 0.73152
        CHANNELS 3 Zrotation Xrotation Yrotation
        JOINT lFoot
        {
          OFFSET -0.73152 -45.1104 -5.12064
          CHANNELS 3 Zrotation Xrotation Yrotation
          End Site
          {
            OFFSET 1.1221 -3.69964 12.103
          }
        }
      }
    }
  }
}
MOTION
Frames:	8
Frame Time:	0.00833333
198.411 85.1731 -26.3056 0.0 0.0 0.0 0.512928 -0.00341808 0.0146931 0.141685 -0.00540188 0.0245502 3.65564e-15 -2.38542e-15 7.45442e-17 1.0958e-14 -6.36111e-15 2.28292e-16 -0.0 0.0 0.0 -0.0 0.0 0.0 1.78781e-15 2.52363e-18 2.48481e-16 4.09291e-14 2.48481e-16 1.59028e-15 6.63692e-13 -1.97791e-13 1.90833e-14 7.60483e-12 2.03655e-13 1.36764e-13 1.79357e-11 1.08649e-14 3.59403e-13 3.09746e-11 1.90833e-14 6.15437e-13 1.79419e-11 1.31198e-14 3.56222e-13 7.73091 5.47488 0.417314 1.79362e-11 1.11319e-14 3.62583e-13 2.90554 0.965183 0.102902 1.79434e-11 1.18277e-14 3.59403e-13 10.2786 0.731801 0.0259123 1.79314e-11 1.11319e-14 3.72125e-13 2.22167 -0.733487 -0.20892 1.79044e-15 1.74713e-18 -1.49089e-16 3.58216e-14 4.96962e-17 0.0 6.62301e-13 2.01369e-13 0.0 7.6001e-12 -1.91231e-13 1.74931e-13 1.79258e-11 2.15962e-14 3.65764e-13 3.09512e-11 3.49861e-14 6.28955e-13 1.792e-11 2.54444e-14 3.72125e-13 -7.73091 5.47488 -0.417314 1.7925e-11 2.23633e-14 3.65764e-13 -2.90554 0.965183 -0.102902 1.7915e-11 2.23633e-14 3.62583e-13 -10.2786 0.731801 -0.0259123 1.79282e-11 2.06736e-14 3.53042e-13 -2.22167 -0.733487 0.20892 -2.03217e-16 0.0 -3.88251e-19 0.860078 -4.41145 -0.072973 -0.00213173 2.4394 -0.0112577 -0.474515 1.97259 0.0938473 2.03217e-16 0.0 3.88251e-19 -0.0776223 -2.42096 0.0232529 0.00766731 -1.16603 0.0659952 0.465708 3.58744 -0.125206
190.501 84.1864 -31.5153 -3.3626 -81.8756 0.3323 -0.303079 3.14642 0.770005 0.951408 0.573276 0.18519 1.28418 0.94374 1.60058 -1.67794 0.605114 2.7295 -0.0 0.0 0.0 -0.0 0.0 0.0 -5.59071e-15 8.28747e-14 5.79038e-14 21.2729 11.6115 1.90387 -4.91589 -2.39224 7.4982 0.0694084 -5.84963 -0.806717 -5.70503e-11 -1.10794e-10 -2.80087e-10 -9.58821e-11 -1.9168e-10 -4.85282e-10 -5.70455e-11 -1.10792e-10 -2.80091e-10 7.73091 5.47488 0.417314 -5.705e-11 -1.10793e-10 -2.80083e-10 2.90554 0.965183 0.102902 -5.70441e-11 -1.10793e-10 -2.80085e-10 10.2786 0.731801 0.0259123 -5.70564e-11 -1.10792e-10 -2.80074e-10 2.22167 -0.733487 -0.20892 -5.60798e-15 8.28728e-14 5.75742e-14 -22.3247 10.033 -3.56992 3.91533 -1.72244 -6.17539 -0.0038 1.38013 -0.193769 -4.14127e-10 -4.84066e-11 2.60854e-10 -7.14263e-10 -8.33915e-11 4.53184e-10 -4.14132e-10 -4.84037e-11 2.60862e-10 -7.73091 5.47488 -0.417314 -4.14128e-10 -4.84065e-11 2.60854e-10 -2.90554 0.965183 -0.102902 -4.14136e-10 -4.84063e-11 2.60851e-10 -10.2786 0.731801 -0.0259123 -4.14122e-10 -4.84072e-11 2.60841e-10 -2.22167 -0.733487 0.20892 -2.03217e-16 0.0 -3.88251e-19 2.13051 -5.82051 4.93731 0.0834535 10.1801 0.251658 -2.2111 -8.63999 -7.94441 2.03217e-16 0.0 3.88251e-19 -0.894571 -4.15322 -5.29797 -0.0580764 7.08069 -0.158979 1.64507 -3.73688 7.93758
190.498 84.1293 -31.5524 -4.0871 -82.0037 1.0609 -1.26143 6.47547 1.57485 1.80528 1.18497 0.354422 2.58421 1.93855 3.29564 -3.51767 1.245 5.6191 -0.0 0.0 0.0 -0.0 0.0 0.0 -1.36866e-14 1.72268e-13 1.20103e-13 42.8483 23.8461 4.20105 -9.43696 -4.78378 15.4649 -0.0399766 -12.0307 -1.68811 -1.32535e-10 -2.41614e-10 -5.97112e-10 -2.23312e-10 -4.18057e-10 -1.03435e-09 -1.32532e-10 -2.41613e-10 -5.97115e-10 7.73091 5.47488 0.417314 -1.32535e-10 -2.41614e-10 -5.97106e-10 2.90554 0.965183 0.102902 -1.3253e-10 -2.41613e-10 -5.97107e-10 10.2786 0.731801 0.0259123 -1.32543e-10 -2.41611e-10 -5.97097e-10 2.22167 -0.733487 -0.20892 -1.37248e-14 1.72265e-13 1.19845e-13 -44.4785 20.5185 -7.74164 7.65808 -3.47987 -12.7292 0.00235895 2.81752 -0.395961 -8.84308e-10 -1.16009e-10 5.5796e-10 -1.52512e-09 -2.0002e-10 9.6919e-10 -8.84313e-10 -1.16007e-10 5.57969e-10 -7.73091 5.47488 -0.417314 -8.84309e-10 -1.16009e-10 5.5796e-10 -2.90554 0.965183 -0.102902 -8.84316e-10 -1.16009e-10 5.57956e-10 -10.2786 0.731801 -0.0259123 -8.84301e-10 -1.16009e-10 5.57945e-10 -2.22167 -0.733487 0.20892 -2.03217e-16 0.0 -3.88251e-19 3.73864 -7.23452 10.2594 0.0928668 18.37 0.549646 -7.40007 -19.22 -17.2117 2.03217e-16 0.0 3.88251e-19 -2.1091 -5.90372 -10.9525 -0.0548188 15.7861 -0.409436 5.13504 -11.069 16.7468
190.495 84.0617 -31.5729 -4.6469 -82.0342 1.6085 -2.18708 9.43941 2.30842 2.56111 1.73057 0.506673 3.6944 2.82238 4.80694 -5.20621 1.79887 8.1921 -0.0 0.0 0.0 -0.0 0.0 0.0 -2.03477e-14 2.48619e-13 1.73214e-13 61.0847 34.6633 6.80719 -12.9122 -6.68614 22.6373 -0.306269 -17.5346 -2.52494 -2.07022e-10 -3.32403e-10 -8.40981e-10 -3.49596e-10 -5.75079e-10 -1.45708e-09 -2.0702e-10 -3.32402e-10 -8.40984e-10 7.73091 5.47488 0.417314 -2.07022e-10 -3.32403e-10 -8.40975e-10 2.90554 0.965183 0.102902 -2.07019e-10 -3.32402e-10 -8.40975e-10 10.2786 0.731801 0.0259123 -2.07032e-10 -3.32399e-10 -8.40965e-10 2.22167 -0.733487 -0.20892 -2.04048e-14 2.48615e-13 1.73021e-13 -62.7724 29.5957 -12.1506 10.6502 -4.92767 -18.589 0.0166668 4.14021 -0.582659 -1.27823e-09 -1.45263e-10 7.81832e-10 -2.20469e-09 -2.50244e-10 1.35829e-09 -1.27824e-09 -1.45262e-10 7.81841e-10 -7.73091 5.47488 -0.417314 -1.27823e-09 -1.45264e-10 7.81832e-10 -2.90554 0.965183 -0.102902 -1.27824e-09 -1.45263e-10 7.81828e-10 -10.2786 0.731801 -0.0259123 -1.27822e-09 -1.45263e-10 7.81816e-10 -2.22167 -0.733487 0.20892 -2.03217e-16 0.0 -3.88251e-19 5.4056 -8.40915 15.0464 0.0212134 25.6594 0.849347 -15.2346 -27.3365 -26.959 2.03217e-16 0.0 3.88251e-19 -3.48517 -7.3759 -16.0347 0.018433 23.5728 -0.660371 10.2081 -16.843 25.1609
190.503 83.9837 -31.5746 -4.5678 -82.0458 1.5687 -2.85266 11.4969 2.83743 3.07865 2.11102 0.616281 4.44171 3.43723 5.85387 -6.39291 2.15377 9.96998 -0.0 0.0 0.0 -0.0 0.0 0.0 -2.34219e-14 2.92365e-13 2.03605e-13 73.0313 42.0981 9.16478 -15.0483 -7.83215 27.6881 -0.594322 -21.3594 -3.15071 -2.79016e-10 -3.23113e-10 -9.01964e-10 -4.73015e-10 -5.58719e-10 -1.56396e-09 -2.79014e-10 -3.23113e-10 -9.01967e-10 7.73091 5.47488 0.417314 -2.79016e-10 -3.23113e-10 -9.01958e-10 2.90554 0.965183 0.102902 -2.79013e-10 -3.23113e-10 -9.01957e-10 10.2786 0.731801 0.0259123 -2.79026e-10 -3.23108e-10 -9.01948e-10 2.22167 -0.733487 -0.20892 -2.34928e-14 2.9236e-13 2.03456e-13 -74.5761 35.6397 -15.7665 12.5366 -5.83204 -22.6533 0.0329748 5.17629 -0.729485 -1.48151e-09 -7.86487e-11 8.22619e-10 -2.55604e-09 -1.34458e-10 1.43014e-09 -1.48152e-09 -7.86476e-11 8.22628e-10 -7.73091 5.47488 -0.417314 -1.48151e-09 -7.86493e-11 8.22619e-10 -2.90554 0.965183 -0.102902 -1.48152e-09 -7.86486e-11 8.22615e-10 -10.2786 0.731801 -0.0259123 -1.4815e-09 -7.86476e-11 8.22603e-10 -2.22167 -0.733487 0.20892 -2.03217e-16 0.0 -3.88251e-19 6.71039 -9.1778 18.4269 -0.0810842 30.6996 1.08688 -22.6193 -31.7137 -34.9354 2.03217e-16 0.0 3.88251e-19 -4.60316 -8.36519 -19.608 0.1167 29.0638 -0.862787 14.8399 -20.2437 31.4354
190.508 83.9184 -31.5866 -4.8057 -82.0746 1.8308 -3.06975 12.2891 3.06353 3.26457 2.25988 0.666948 4.73216 3.68625 6.24631 -6.82155 2.23499 10.6301 -0.0 0.0 0.0 -0.0 0.0 0.0 -2.11075e-14 2.92706e-13 2.03752e-13 77.5497 44.9385 10.1854 -15.8299 -8.23684 29.6881 -0.730807 -22.8391 -3.4054 -3.74856e-10 -1.34599e-10 -6.57221e-10 -6.39927e-10 -2.31777e-10 -1.14341e-09 -3.74854e-10 -1.34601e-10 -6.57226e-10 7.73091 5.47488 0.417314 -3.74855e-10 -1.346e-10 -6.57217e-10 2.90554 0.965183 0.102902 -3.74854e-10 -1.34601e-10 -6.57215e-10 10.2786 0.731801 0.0259123 -3.74864e-10 -1.34596e-10 -6.57208e-10 2.22167 -0.733487 -0.20892 -2.11896e-14 2.92701e-13 2.03621e-13 -79.0965 37.8515 -17.1341 13.1977 -6.13343 -24.1676 0.0439782 5.80317 -0.818574 -1.40787e-09 1.71827e-10 5.42727e-10 -2.43108e-09 2.99842e-10 9.46662e-10 -1.40787e-09 1.71831e-10 5.42735e-10 -7.73091 5.47488 -0.417314 -1.40787e-09 1.71829e-10 5.42727e-10 -2.90554 0.965183 -0.102902 -1.40788e-09 1.7183e-10 5.42723e-10 -10.2786 0.731801 -0.0259123 -1.40786e-09 1.71831e-10 5.42713e-10 -2.22167 -0.733487 0.20892 -2.03217e-16 0.0 -3.88251e-19 7.29745 -9.49609 19.8129 -0.132926 32.5829 1.18476 -25.966 -32.7456 -38.5763 2.03217e-16 0.0 3.88251e-19 -5.07776 -8.82501 -21.0267 0.169549 31.3594 -0.955666 16.9386 -21.4658 33.9973
190.514 83.8649 -31.5971 -5.0432 -82.0914 2.0961 -2.94689 12.1789 3.0676 3.2144 2.24333 0.675432 4.70761 3.67542 6.17032 -6.69796 2.12389 10.4913 -0.0 0.0 0.0 -0.0 0.0 0.0 -1.49614e-14 2.61938e-13 1.8222e-13 77.2023 44.5495 9.89089 -15.7566 -8.20379 29.4916 -0.713059 -22.6469 -3.37209 -4.86427e-10 1.80068e-10 -1.96469e-10 -8.35642e-10 3.13776e-10 -3.50188e-10 -4.86425e-10 1.80064e-10 -1.96476e-10 7.73091 5.47488 0.417314 -4.86427e-10 1.80066e-10 -1.96468e-10 2.90554 0.965183 0.102902 -4.86426e-10 1.80065e-10 -1.96466e-10 10.2786 0.731801 0.0259123 -4.86433e-10 1.80069e-10 -1.96459e-10 2.22167 -0.733487 -0.20892 -1.50529e-14 2.61933e-13 1.8209e-13 -78.9026 37.448 -16.5389 13.052 -6.04744 -23.8517 0.0489311 6.13818 -0.866193 -1.1369e-09 5.51269e-10 3.68435e-11 -1.96672e-09 9.57551e-10 7.18143e-11 -1.13691e-09 5.51276e-10 3.68503e-11 -7.73091 5.47488 -0.417314 -1.1369e-09 5.51274e-10 3.68439e-11 -2.90554 0.965183 -0.102902 -1.13691e-09 5.51275e-10 3.68412e-11 -10.2786 0.731801 -0.0259123 -1.1369e-09 5.51275e-10 3.68328e-11 -2.22167 -0.733487 0.20892 -2.03217e-16 0.0 -3.88251e-19 7.32132 -9.52528 19.7653 -0.1236 32.2122 1.1664 -25.6684 -32.0058 -38.6998 2.03217e-16 0.0 3.88251e-19 -5.02539 -8.94617 -20.895 0.166755 31.3722 -0.95554 16.7988 -21.4733 33.7324
190.519 83.8379 -31.6039 -5.2918 -82.1032 2.3742 -2.69236 11.7089 2.97926 3.07151 2.1613 0.665615 4.55419 3.55281 5.90848 -6.35802 1.94531 10.0368 -0.0 0.0 0.0 -0.0 0.0 0.0 -7.86993e-15 2.15137e-13 1.49515e-13 74.8791 42.8771 9.097 -15.3455 -7.99909 28.4235 -0.63453 -21.793 -3.22498 -5.6055e-10 4.82616e-10 2.71192e-10 -9.66876e-10 8.38226e-10 4.55721e-10 -5.60547e-10 4.82611e-10 2.71184e-10 7.73091 5.47488 0.417314 -5.60549e-10 4.82614e-10 2.71191e-10 2.90554 0.965183 0.102902 -5.60549e-10 4.82612e-10 2.71193e-10 10.2786 0.731801 0.0259123 -5.60553e-10 4.82615e-10 2.71199e-10 2.22167 -0.733487 -0.20892 -7.96229e-15 2.15132e-13 1.49375e-13 -76.7955 35.9664 -15.1763 12.5799 -5.80429 -22.8042 0.0510921 6.36936 -0.898985 -8.03041e-10 9.02865e-10 -4.56461e-10 -1.39344e-09 1.56687e-09 -7.8171e-10 -8.03043e-10 9.02874e-10 -4.56456e-10 -7.73091 5.47488 -0.417314 -8.03038e-10 9.02873e-10 -4.5646e-10 -2.90554 0.965183 -0.102902 -8.03049e-10 9.02874e-10 -4.56462e-10 -10.2786 0.731801 -0.0259123 -8.0304e-10 9.02873e-10 -4.56468e-10 -2.22167 -0.733487 0.20892 -2.03217e-16 0.0 -3.88251e-19 7.10797 -9.43679 19.1287 -0.090998 30.9553 1.10288 -23.9215 -30.641 -37.3985 2.03217e-16 0.0 3.88251e-19 -4.75569 -8.91812 -20.1409 0.140295 30.4438 -0.916505 15.7477 -20.9861 32.3315
